<?xml version="1.0" encoding="UTF-8" standalone="no"?>
<!DOCTYPE svg PUBLIC "-//W3C//DTD SVG 1.1//EN"
 "http://www.w3.org/Graphics/SVG/1.1/DTD/svg11.dtd">
<!-- Generated by graphviz version 2.40.1 (20161225.0304)
 -->
<!-- Title: dependencies Pages: 1 -->
<svg width="555pt" height="284pt"
 viewBox="0.00 0.00 555.00 284.00" xmlns="http://www.w3.org/2000/svg" xmlns:xlink="http://www.w3.org/1999/xlink">
<g id="graph0" class="graph" transform="scale(1 1) rotate(0) translate(4 280)">
<title>dependencies</title>
<polygon fill="#ffffff" stroke="transparent" points="-4,4 -4,-280 551,-280 551,4 -4,4"/>
<text text-anchor="start" x="252.5091" y="-42.4" font-family="sans-serif" font-weight="bold" font-size="14.00" fill="#000000">Legend</text>
<polygon fill="#ffffb3" stroke="transparent" points="39.5,-10 39.5,-30 59.5,-30 59.5,-10 39.5,-10"/>
<text text-anchor="start" x="63.129" y="-15.4" font-family="sans-serif" font-size="14.00" fill="#000000"> &#160;Declarations</text>
<polygon fill="#8dd3c7" stroke="transparent" points="152.5,-10 152.5,-30 172.5,-30 172.5,-10 152.5,-10"/>
<text text-anchor="start" x="176.2251" y="-15.4" font-family="sans-serif" font-size="14.00" fill="#000000"> &#160;Module</text>
<polygon fill="#80b1d3" stroke="transparent" points="238.5,-10 238.5,-30 258.5,-30 258.5,-10 238.5,-10"/>
<text text-anchor="start" x="262.2812" y="-15.4" font-family="sans-serif" font-size="14.00" fill="#000000"> &#160;Bootstrap</text>
<polygon fill="#fdb462" stroke="transparent" points="335.5,-10 335.5,-30 355.5,-30 355.5,-10 335.5,-10"/>
<text text-anchor="start" x="359.1732" y="-15.4" font-family="sans-serif" font-size="14.00" fill="#000000"> &#160;Providers</text>
<polygon fill="#fb8072" stroke="transparent" points="431.5,-10 431.5,-30 451.5,-30 451.5,-10 431.5,-10"/>
<text text-anchor="start" x="455.2258" y="-15.4" font-family="sans-serif" font-size="14.00" fill="#000000"> &#160;Exports</text>
<g id="clust1" class="cluster">
<title>cluster_AppModule</title>
<polygon fill="none" stroke="#000000" stroke-dasharray="1,5" points="8,-70 8,-268 539,-268 539,-70 8,-70"/>
</g>
<g id="clust2" class="cluster">
<title>cluster_AppModule_declarations</title>
<polygon fill="none" stroke="#000000" points="409,-78 409,-130 531,-130 531,-78 409,-78"/>
</g>
<g id="clust4" class="cluster">
<title>cluster_AppModule_imports</title>
<polygon fill="none" stroke="#000000" points="16,-78 16,-130 401,-130 401,-78 16,-78"/>
</g>
<g id="clust6" class="cluster">
<title>cluster_AppModule_bootstrap</title>
<polygon fill="none" stroke="#000000" points="204,-208 204,-260 328,-260 328,-208 204,-208"/>
</g>
<!-- AppComponent -->
<g id="node1" class="node">
<title>AppComponent</title>
<polygon fill="#ffffb3" stroke="#000000" points="522.9399,-122 417.0601,-122 417.0601,-86 522.9399,-86 522.9399,-122"/>
<text text-anchor="middle" x="470" y="-99.8" font-family="Times,serif" font-size="14.00" fill="#000000">AppComponent</text>
</g>
<!-- AppModule -->
<g id="node2" class="node">
<title>AppModule</title>
<polygon fill="#8dd3c7" stroke="#000000" points="307.6571,-187 304.6571,-191 283.6571,-191 280.6571,-187 224.3429,-187 224.3429,-151 307.6571,-151 307.6571,-187"/>
<text text-anchor="middle" x="266" y="-164.8" font-family="Times,serif" font-size="14.00" fill="#000000">AppModule</text>
</g>
<!-- AppComponent&#45;&gt;AppModule -->
<g id="edge1" class="edge">
<title>AppComponent&#45;&gt;AppModule</title>
<path fill="none" stroke="#000000" d="M470,-122.1061C470,-141.3391 470,-169 470,-169 470,-169 317.7747,-169 317.7747,-169"/>
<polygon fill="#000000" stroke="#000000" points="317.7747,-165.5001 307.7747,-169 317.7747,-172.5001 317.7747,-165.5001"/>
</g>
<!-- AppComponent  -->
<g id="node6" class="node">
<title>AppComponent </title>
<polygon fill="#80b1d3" stroke="#000000" points="320.439,-252 211.561,-252 211.561,-216 320.439,-216 320.439,-252"/>
<text text-anchor="middle" x="266" y="-229.8" font-family="Times,serif" font-size="14.00" fill="#000000">AppComponent </text>
</g>
<!-- AppModule&#45;&gt;AppComponent  -->
<g id="edge5" class="edge">
<title>AppModule&#45;&gt;AppComponent </title>
<path fill="none" stroke="#000000" stroke-dasharray="1,5" d="M266,-187.1061C266,-187.1061 266,-205.991 266,-205.991"/>
<polygon fill="#000000" stroke="#000000" points="262.5001,-205.9909 266,-215.991 269.5001,-205.991 262.5001,-205.9909"/>
</g>
<!-- ChcxStaticModule -->
<g id="node3" class="node">
<title>ChcxStaticModule</title>
<polygon fill="#8dd3c7" stroke="#000000" points="393.4846,-122 390.4846,-126 369.4846,-126 366.4846,-122 272.5154,-122 272.5154,-86 393.4846,-86 393.4846,-122"/>
<text text-anchor="middle" x="333" y="-99.8" font-family="Times,serif" font-size="14.00" fill="#000000">ChcxStaticModule</text>
</g>
<!-- ChcxStaticModule&#45;&gt;AppModule -->
<g id="edge2" class="edge">
<title>ChcxStaticModule&#45;&gt;AppModule</title>
<path fill="none" stroke="#000000" d="M290.168,-122.1061C290.168,-122.1061 290.168,-140.991 290.168,-140.991"/>
<polygon fill="#000000" stroke="#000000" points="286.668,-140.9909 290.168,-150.991 293.668,-140.991 286.668,-140.9909"/>
</g>
<!-- GcxCoreModule -->
<g id="node4" class="node">
<title>GcxCoreModule</title>
<polygon fill="#8dd3c7" stroke="#000000" points="254.0828,-122 251.0828,-126 230.0828,-126 227.0828,-122 143.9172,-122 143.9172,-86 254.0828,-86 254.0828,-122"/>
<text text-anchor="middle" x="199" y="-99.8" font-family="Times,serif" font-size="14.00" fill="#000000">GcxCoreModule</text>
</g>
<!-- GcxCoreModule&#45;&gt;AppModule -->
<g id="edge3" class="edge">
<title>GcxCoreModule&#45;&gt;AppModule</title>
<path fill="none" stroke="#000000" d="M239.1066,-122.1061C239.1066,-122.1061 239.1066,-140.991 239.1066,-140.991"/>
<polygon fill="#000000" stroke="#000000" points="235.6067,-140.9909 239.1066,-150.991 242.6067,-140.991 235.6067,-140.9909"/>
</g>
<!-- MnGeoModule -->
<g id="node5" class="node">
<title>MnGeoModule</title>
<polygon fill="#8dd3c7" stroke="#000000" points="126.3161,-122 123.3161,-126 102.3161,-126 99.3161,-122 23.6839,-122 23.6839,-86 126.3161,-86 126.3161,-122"/>
<text text-anchor="middle" x="75" y="-99.8" font-family="Times,serif" font-size="14.00" fill="#000000">MnGeoModule</text>
</g>
<!-- MnGeoModule&#45;&gt;AppModule -->
<g id="edge4" class="edge">
<title>MnGeoModule&#45;&gt;AppModule</title>
<path fill="none" stroke="#000000" d="M75,-122.1061C75,-141.3391 75,-169 75,-169 75,-169 214.0842,-169 214.0842,-169"/>
<polygon fill="#000000" stroke="#000000" points="214.0843,-172.5001 224.0842,-169 214.0842,-165.5001 214.0843,-172.5001"/>
</g>
</g>
</svg>
